<svg xmlns="http://www.w3.org/2000/svg" version="1.1" xmlns:xlink="http://www.w3.org/1999/xlink" width="200" height="200"><svg xmlns="http://www.w3.org/2000/svg" version="1.1" xmlns:xlink="http://www.w3.org/1999/xlink" viewBox="0 0 200 200"><rect width="200" height="200" fill="url('#gradient')"></rect><defs><linearGradient id="SvgjsLinearGradient1001" gradientTransform="rotate(132 0.5 0.5)"><stop offset="0%" stop-color="#dee90b"></stop><stop offset="100%" stop-color="#222314"></stop></linearGradient></defs><g><g fill="#1b3855" transform="matrix(8.091663374160412,0,0,8.091663374160412,-5.436598011435663,157.53598196805112)" stroke="#0e5278" stroke-width="1.25"><path d="M9.17-4.81L12.58-4.81Q12.51-3.33 11.78-2.19Q11.04-1.05 9.72-0.43Q8.40 0.20 6.70 0.20L6.70 0.20Q3.90 0.20 2.29-1.63Q0.67-3.46 0.67-6.79L0.67-6.79L0.67-7.49Q0.67-9.58 1.40-11.15Q2.13-12.71 3.50-13.57Q4.86-14.42 6.66-14.42L6.66-14.42Q9.25-14.42 10.82-13.06Q12.39-11.70 12.61-9.31L12.61-9.31L9.19-9.31Q9.15-10.61 8.54-11.17Q7.92-11.74 6.66-11.74L6.66-11.74Q5.38-11.74 4.79-10.78Q4.19-9.82 4.16-7.72L4.16-7.72L4.16-6.72Q4.16-4.44 4.73-3.47Q5.30-2.49 6.70-2.49L6.70-2.49Q7.88-2.49 8.51-3.05Q9.13-3.60 9.17-4.81L9.17-4.81ZM19.81-4.82L17.63-4.82L17.63 0L14.20 0L14.20-14.22L19.87-14.22Q21.50-14.22 22.76-13.62Q24.01-13.02 24.70-11.91Q25.39-10.80 25.39-9.39L25.39-9.39Q25.39-7.31 23.90-6.07Q22.41-4.82 19.81-4.82L19.81-4.82ZM17.63-11.57L17.63-7.47L19.87-7.47Q20.87-7.47 21.39-7.97Q21.91-8.47 21.91-9.38L21.91-9.38Q21.91-10.37 21.38-10.97Q20.84-11.56 19.91-11.57L19.91-11.57L17.63-11.57Z"></path></g></g></svg><style>@media (prefers-color-scheme: light) { :root { filter: none; } }
@media (prefers-color-scheme: dark) { :root { filter: none; } }
</style></svg>